<mxfile host="app.diagrams.net" modified="2020-08-24T02:23:58.609Z" agent="5.0 (Windows)" etag="JTTDl_IK2abyoHDFDhUc" version="13.6.4" type="github">
  <diagram id="F6alMVENvAiCOfsNCA-D" name="Page-1">
    <mxGraphModel dx="2131" dy="604" grid="1" gridSize="10" guides="1" tooltips="1" connect="1" arrows="1" fold="1" page="1" pageScale="1" pageWidth="900" pageHeight="800" math="0" shadow="0">
      <root>
        <mxCell id="0" />
        <mxCell id="1" parent="0" />
        <mxCell id="dxGXI-1ypvfeSL7Pn-D6-101" value="" style="rounded=0;whiteSpace=wrap;html=1;" parent="1" vertex="1">
          <mxGeometry x="-440" y="70" width="1180" height="450" as="geometry" />
        </mxCell>
        <mxCell id="dxGXI-1ypvfeSL7Pn-D6-5" style="edgeStyle=orthogonalEdgeStyle;rounded=0;orthogonalLoop=1;jettySize=auto;html=1;entryX=0.5;entryY=0;entryDx=0;entryDy=0;" parent="1" source="dxGXI-1ypvfeSL7Pn-D6-1" target="dxGXI-1ypvfeSL7Pn-D6-3" edge="1">
          <mxGeometry relative="1" as="geometry" />
        </mxCell>
        <mxCell id="dxGXI-1ypvfeSL7Pn-D6-6" style="edgeStyle=orthogonalEdgeStyle;rounded=0;orthogonalLoop=1;jettySize=auto;html=1;entryX=0.5;entryY=0;entryDx=0;entryDy=0;" parent="1" source="dxGXI-1ypvfeSL7Pn-D6-1" target="dxGXI-1ypvfeSL7Pn-D6-2" edge="1">
          <mxGeometry relative="1" as="geometry">
            <Array as="points">
              <mxPoint x="155" y="190" />
              <mxPoint x="-235" y="190" />
            </Array>
          </mxGeometry>
        </mxCell>
        <mxCell id="dxGXI-1ypvfeSL7Pn-D6-7" style="edgeStyle=orthogonalEdgeStyle;rounded=0;orthogonalLoop=1;jettySize=auto;html=1;entryX=0.5;entryY=0;entryDx=0;entryDy=0;" parent="1" source="dxGXI-1ypvfeSL7Pn-D6-1" target="dxGXI-1ypvfeSL7Pn-D6-4" edge="1">
          <mxGeometry relative="1" as="geometry">
            <Array as="points">
              <mxPoint x="155" y="190" />
              <mxPoint x="535" y="190" />
            </Array>
          </mxGeometry>
        </mxCell>
        <mxCell id="dxGXI-1ypvfeSL7Pn-D6-1" value="&lt;span lang=&quot;EN-US&quot;&gt;Game&lt;/span&gt;&lt;i&gt;&lt;span lang=&quot;EN-US&quot;&gt; &lt;/span&gt;&lt;/i&gt;&lt;span lang=&quot;EN-US&quot;&gt;Raden Arya Wiralodra : Babad Alas Dermayu&lt;/span&gt;" style="rounded=0;whiteSpace=wrap;html=1;" parent="1" vertex="1">
          <mxGeometry x="80" y="90" width="150" height="60" as="geometry" />
        </mxCell>
        <mxCell id="dxGXI-1ypvfeSL7Pn-D6-98" style="edgeStyle=orthogonalEdgeStyle;rounded=0;orthogonalLoop=1;jettySize=auto;html=1;entryX=0.5;entryY=0;entryDx=0;entryDy=0;" parent="1" source="dxGXI-1ypvfeSL7Pn-D6-2" target="dxGXI-1ypvfeSL7Pn-D6-71" edge="1">
          <mxGeometry relative="1" as="geometry" />
        </mxCell>
        <mxCell id="dxGXI-1ypvfeSL7Pn-D6-2" value="H01" style="rounded=0;whiteSpace=wrap;html=1;" parent="1" vertex="1">
          <mxGeometry x="-270" y="220" width="70" height="40" as="geometry" />
        </mxCell>
        <mxCell id="dxGXI-1ypvfeSL7Pn-D6-99" style="edgeStyle=orthogonalEdgeStyle;rounded=0;orthogonalLoop=1;jettySize=auto;html=1;entryX=0.5;entryY=0;entryDx=0;entryDy=0;" parent="1" source="dxGXI-1ypvfeSL7Pn-D6-3" target="dxGXI-1ypvfeSL7Pn-D6-80" edge="1">
          <mxGeometry relative="1" as="geometry" />
        </mxCell>
        <mxCell id="dxGXI-1ypvfeSL7Pn-D6-3" value="H02" style="rounded=0;whiteSpace=wrap;html=1;" parent="1" vertex="1">
          <mxGeometry x="120" y="220" width="70" height="40" as="geometry" />
        </mxCell>
        <mxCell id="dxGXI-1ypvfeSL7Pn-D6-100" style="edgeStyle=orthogonalEdgeStyle;rounded=0;orthogonalLoop=1;jettySize=auto;html=1;entryX=0.5;entryY=0;entryDx=0;entryDy=0;" parent="1" source="dxGXI-1ypvfeSL7Pn-D6-4" target="dxGXI-1ypvfeSL7Pn-D6-89" edge="1">
          <mxGeometry relative="1" as="geometry" />
        </mxCell>
        <mxCell id="dxGXI-1ypvfeSL7Pn-D6-4" value="H03" style="rounded=0;whiteSpace=wrap;html=1;" parent="1" vertex="1">
          <mxGeometry x="500" y="220" width="70" height="40" as="geometry" />
        </mxCell>
        <mxCell id="dxGXI-1ypvfeSL7Pn-D6-71" value="T01=&#39;&lt;i&gt;&lt;span lang=&quot;EN-US&quot;&gt;R01+R02+R03+R04&amp;gt;=nilaiMax:3&lt;/span&gt;&lt;/i&gt;&#39;" style="rounded=0;whiteSpace=wrap;html=1;" parent="1" vertex="1">
          <mxGeometry x="-346" y="320" width="222" height="40" as="geometry" />
        </mxCell>
        <mxCell id="dxGXI-1ypvfeSL7Pn-D6-72" value="R02=&#39;15&#39;" style="ellipse;whiteSpace=wrap;html=1;aspect=fixed;" parent="1" vertex="1">
          <mxGeometry x="-330" y="420" width="80" height="80" as="geometry" />
        </mxCell>
        <mxCell id="dxGXI-1ypvfeSL7Pn-D6-73" value="&lt;div&gt;R03=&#39;10&#39;&lt;/div&gt;" style="ellipse;whiteSpace=wrap;html=1;aspect=fixed;" parent="1" vertex="1">
          <mxGeometry x="-230" y="420" width="80" height="80" as="geometry" />
        </mxCell>
        <mxCell id="dxGXI-1ypvfeSL7Pn-D6-74" value="R04=&#39;12&#39;" style="ellipse;whiteSpace=wrap;html=1;aspect=fixed;" parent="1" vertex="1">
          <mxGeometry x="-140" y="360" width="80" height="80" as="geometry" />
        </mxCell>
        <mxCell id="dxGXI-1ypvfeSL7Pn-D6-75" value="&lt;div&gt;R01=&#39;10&#39;&lt;/div&gt;" style="ellipse;whiteSpace=wrap;html=1;aspect=fixed;" parent="1" vertex="1">
          <mxGeometry x="-420" y="360" width="80" height="80" as="geometry" />
        </mxCell>
        <mxCell id="dxGXI-1ypvfeSL7Pn-D6-76" value="" style="endArrow=none;html=1;exitX=0.5;exitY=1;exitDx=0;exitDy=0;entryX=1;entryY=0;entryDx=0;entryDy=0;" parent="1" source="dxGXI-1ypvfeSL7Pn-D6-71" target="dxGXI-1ypvfeSL7Pn-D6-75" edge="1">
          <mxGeometry width="50" height="50" relative="1" as="geometry">
            <mxPoint x="80" y="430" as="sourcePoint" />
            <mxPoint x="130" y="380" as="targetPoint" />
          </mxGeometry>
        </mxCell>
        <mxCell id="dxGXI-1ypvfeSL7Pn-D6-77" value="" style="endArrow=none;html=1;exitX=0.5;exitY=1;exitDx=0;exitDy=0;entryX=0.5;entryY=0;entryDx=0;entryDy=0;" parent="1" target="dxGXI-1ypvfeSL7Pn-D6-72" edge="1">
          <mxGeometry width="50" height="50" relative="1" as="geometry">
            <mxPoint x="-234.99999999999977" y="360" as="sourcePoint" />
            <mxPoint x="-351.71572875252855" y="371.7157287525288" as="targetPoint" />
          </mxGeometry>
        </mxCell>
        <mxCell id="dxGXI-1ypvfeSL7Pn-D6-78" value="" style="endArrow=none;html=1;exitX=0.5;exitY=1;exitDx=0;exitDy=0;entryX=0.5;entryY=0;entryDx=0;entryDy=0;" parent="1" target="dxGXI-1ypvfeSL7Pn-D6-73" edge="1">
          <mxGeometry width="50" height="50" relative="1" as="geometry">
            <mxPoint x="-234.99999999999977" y="360" as="sourcePoint" />
            <mxPoint x="-290" y="420" as="targetPoint" />
          </mxGeometry>
        </mxCell>
        <mxCell id="dxGXI-1ypvfeSL7Pn-D6-79" value="" style="endArrow=none;html=1;exitX=0.5;exitY=1;exitDx=0;exitDy=0;entryX=0;entryY=0;entryDx=0;entryDy=0;" parent="1" target="dxGXI-1ypvfeSL7Pn-D6-74" edge="1">
          <mxGeometry width="50" height="50" relative="1" as="geometry">
            <mxPoint x="-234.99999999999977" y="360" as="sourcePoint" />
            <mxPoint x="-213.67999999999984" y="420" as="targetPoint" />
          </mxGeometry>
        </mxCell>
        <mxCell id="dxGXI-1ypvfeSL7Pn-D6-80" value="T02=&#39;&lt;i&gt;&lt;span lang=&quot;EN-US&quot;&gt;R01+R02+R03+R04&amp;gt;=&lt;/span&gt;&lt;/i&gt;&lt;i&gt;&lt;span lang=&quot;EN-US&quot;&gt;nilaiMax*2:3&lt;/span&gt;&lt;/i&gt;&#39;" style="rounded=0;whiteSpace=wrap;html=1;" parent="1" vertex="1">
          <mxGeometry x="35" y="320" width="240" height="40" as="geometry" />
        </mxCell>
        <mxCell id="dxGXI-1ypvfeSL7Pn-D6-81" value="R02=&#39;15&#39;" style="ellipse;whiteSpace=wrap;html=1;aspect=fixed;" parent="1" vertex="1">
          <mxGeometry x="60" y="420" width="80" height="80" as="geometry" />
        </mxCell>
        <mxCell id="dxGXI-1ypvfeSL7Pn-D6-82" value="&lt;div&gt;R03=&#39;15&#39;&lt;/div&gt;" style="ellipse;whiteSpace=wrap;html=1;aspect=fixed;" parent="1" vertex="1">
          <mxGeometry x="160" y="420" width="80" height="80" as="geometry" />
        </mxCell>
        <mxCell id="dxGXI-1ypvfeSL7Pn-D6-83" value="R04=&#39;24&#39;" style="ellipse;whiteSpace=wrap;html=1;aspect=fixed;" parent="1" vertex="1">
          <mxGeometry x="250" y="360" width="80" height="80" as="geometry" />
        </mxCell>
        <mxCell id="dxGXI-1ypvfeSL7Pn-D6-84" value="&lt;div&gt;R01=&#39;15&#39;&lt;/div&gt;" style="ellipse;whiteSpace=wrap;html=1;aspect=fixed;" parent="1" vertex="1">
          <mxGeometry x="-30" y="360" width="80" height="80" as="geometry" />
        </mxCell>
        <mxCell id="dxGXI-1ypvfeSL7Pn-D6-85" value="" style="endArrow=none;html=1;exitX=0.5;exitY=1;exitDx=0;exitDy=0;entryX=1;entryY=0;entryDx=0;entryDy=0;" parent="1" source="dxGXI-1ypvfeSL7Pn-D6-80" target="dxGXI-1ypvfeSL7Pn-D6-84" edge="1">
          <mxGeometry width="50" height="50" relative="1" as="geometry">
            <mxPoint x="470" y="430" as="sourcePoint" />
            <mxPoint x="520" y="380" as="targetPoint" />
          </mxGeometry>
        </mxCell>
        <mxCell id="dxGXI-1ypvfeSL7Pn-D6-86" value="" style="endArrow=none;html=1;exitX=0.5;exitY=1;exitDx=0;exitDy=0;entryX=0.5;entryY=0;entryDx=0;entryDy=0;" parent="1" target="dxGXI-1ypvfeSL7Pn-D6-81" edge="1">
          <mxGeometry width="50" height="50" relative="1" as="geometry">
            <mxPoint x="155.00000000000023" y="360" as="sourcePoint" />
            <mxPoint x="38.28427124747145" y="371.7157287525288" as="targetPoint" />
          </mxGeometry>
        </mxCell>
        <mxCell id="dxGXI-1ypvfeSL7Pn-D6-87" value="" style="endArrow=none;html=1;exitX=0.5;exitY=1;exitDx=0;exitDy=0;entryX=0.5;entryY=0;entryDx=0;entryDy=0;" parent="1" target="dxGXI-1ypvfeSL7Pn-D6-82" edge="1">
          <mxGeometry width="50" height="50" relative="1" as="geometry">
            <mxPoint x="155.00000000000023" y="360" as="sourcePoint" />
            <mxPoint x="100" y="420" as="targetPoint" />
          </mxGeometry>
        </mxCell>
        <mxCell id="dxGXI-1ypvfeSL7Pn-D6-88" value="" style="endArrow=none;html=1;exitX=0.5;exitY=1;exitDx=0;exitDy=0;entryX=0;entryY=0;entryDx=0;entryDy=0;" parent="1" target="dxGXI-1ypvfeSL7Pn-D6-83" edge="1">
          <mxGeometry width="50" height="50" relative="1" as="geometry">
            <mxPoint x="155.00000000000023" y="360" as="sourcePoint" />
            <mxPoint x="176.32000000000016" y="420" as="targetPoint" />
          </mxGeometry>
        </mxCell>
        <mxCell id="dxGXI-1ypvfeSL7Pn-D6-89" value="&lt;div&gt;T03=&#39;&lt;i&gt;&lt;span lang=&quot;EN-US&quot;&gt;R01+R02+R03+R04&amp;gt;=&lt;/span&gt;&lt;/i&gt;&lt;i&gt;&lt;span lang=&quot;EN-US&quot;&gt;nilaiMax&lt;/span&gt;&lt;/i&gt;&#39;&lt;/div&gt;" style="rounded=0;whiteSpace=wrap;html=1;" parent="1" vertex="1">
          <mxGeometry x="425.5" y="320" width="219" height="40" as="geometry" />
        </mxCell>
        <mxCell id="dxGXI-1ypvfeSL7Pn-D6-90" value="R02=21" style="ellipse;whiteSpace=wrap;html=1;aspect=fixed;" parent="1" vertex="1">
          <mxGeometry x="440" y="420" width="80" height="80" as="geometry" />
        </mxCell>
        <mxCell id="dxGXI-1ypvfeSL7Pn-D6-91" value="&lt;div&gt;R03=&#39;18&#39;&lt;/div&gt;" style="ellipse;whiteSpace=wrap;html=1;aspect=fixed;" parent="1" vertex="1">
          <mxGeometry x="540" y="420" width="80" height="80" as="geometry" />
        </mxCell>
        <mxCell id="dxGXI-1ypvfeSL7Pn-D6-92" value="R04=&#39;36&#39;" style="ellipse;whiteSpace=wrap;html=1;aspect=fixed;" parent="1" vertex="1">
          <mxGeometry x="630" y="360" width="80" height="80" as="geometry" />
        </mxCell>
        <mxCell id="dxGXI-1ypvfeSL7Pn-D6-93" value="&lt;div&gt;R01=&#39;15&#39;&lt;/div&gt;" style="ellipse;whiteSpace=wrap;html=1;aspect=fixed;" parent="1" vertex="1">
          <mxGeometry x="350" y="360" width="80" height="80" as="geometry" />
        </mxCell>
        <mxCell id="dxGXI-1ypvfeSL7Pn-D6-94" value="" style="endArrow=none;html=1;exitX=0.5;exitY=1;exitDx=0;exitDy=0;entryX=1;entryY=0;entryDx=0;entryDy=0;" parent="1" source="dxGXI-1ypvfeSL7Pn-D6-89" target="dxGXI-1ypvfeSL7Pn-D6-93" edge="1">
          <mxGeometry width="50" height="50" relative="1" as="geometry">
            <mxPoint x="850" y="430" as="sourcePoint" />
            <mxPoint x="900" y="380" as="targetPoint" />
          </mxGeometry>
        </mxCell>
        <mxCell id="dxGXI-1ypvfeSL7Pn-D6-95" value="" style="endArrow=none;html=1;exitX=0.5;exitY=1;exitDx=0;exitDy=0;entryX=0.5;entryY=0;entryDx=0;entryDy=0;" parent="1" target="dxGXI-1ypvfeSL7Pn-D6-90" edge="1">
          <mxGeometry width="50" height="50" relative="1" as="geometry">
            <mxPoint x="535" y="360" as="sourcePoint" />
            <mxPoint x="418.28427124747145" y="371.7157287525288" as="targetPoint" />
          </mxGeometry>
        </mxCell>
        <mxCell id="dxGXI-1ypvfeSL7Pn-D6-96" value="" style="endArrow=none;html=1;exitX=0.5;exitY=1;exitDx=0;exitDy=0;entryX=0.5;entryY=0;entryDx=0;entryDy=0;" parent="1" target="dxGXI-1ypvfeSL7Pn-D6-91" edge="1">
          <mxGeometry width="50" height="50" relative="1" as="geometry">
            <mxPoint x="535" y="360" as="sourcePoint" />
            <mxPoint x="480" y="420" as="targetPoint" />
          </mxGeometry>
        </mxCell>
        <mxCell id="dxGXI-1ypvfeSL7Pn-D6-97" value="" style="endArrow=none;html=1;exitX=0.5;exitY=1;exitDx=0;exitDy=0;entryX=0;entryY=0;entryDx=0;entryDy=0;" parent="1" target="dxGXI-1ypvfeSL7Pn-D6-92" edge="1">
          <mxGeometry width="50" height="50" relative="1" as="geometry">
            <mxPoint x="535" y="360" as="sourcePoint" />
            <mxPoint x="556.3200000000002" y="420" as="targetPoint" />
          </mxGeometry>
        </mxCell>
        <mxCell id="NC0tAdxItfSpQl9g0wGo-1" value="&lt;div align=&quot;left&quot;&gt;Public Int nilaiMax = 90&lt;br&gt;&lt;/div&gt;" style="text;html=1;strokeColor=none;fillColor=none;align=left;verticalAlign=middle;whiteSpace=wrap;rounded=0;" vertex="1" parent="1">
          <mxGeometry x="-420" y="90" width="150" height="20" as="geometry" />
        </mxCell>
      </root>
    </mxGraphModel>
  </diagram>
</mxfile>
